# xmcd CD database file
#
# Track frame offsets:
#	150
#	17822
#	35467
#	47315
#	64482
#	86397
#	102127
#	118590
#	134710
#	152765
#	166902
#	191510
#	208727
#	226640
#	243367
#	257380
#	280170
#
# Disc length: 4037 seconds
#
# Revision: 1
# Processed by: cddbd v1.5.2PL0 Copyright (c) Steve Scherf et al.
# Submitted via: CDex 1.51
#
DISCID=dc0fc311
DTITLE=Louis Armstrong and Duke Ellington - Vol. 148 - Louis Armstrong Meets Duke Ellington
DYEAR=1961
DGENRE=Jazz
TTITLE0=It Don't Mean A Thing (If It Ain't Got That Swing)
TTITLE1=Just Squeeze Me
TTITLE2=Do Nothin' 'Till You Hear From Me
TTITLE3=In A Mellow Tone (In A Mellotone)
TTITLE4=Solitude
TTITLE5=Don't Get Around Much Anymore
TTITLE6=The Mooche
TTITLE7=I'm Beginning To See The Light
TTITLE8=Mood Indigo
TTITLE9=The Beautiful American
TTITLE10=I Got It Bad And That Ain't Good
TTITLE11=Drop Me Off At Harlem
TTITLE12=Black And Tan Fantasy
TTITLE13=Cotton Tail (Shuckin' And Stiffin')
TTITLE14=I'm Just A Lucky So And So
TTITLE15=Duke's Place
TTITLE16=Azalea
EXTD=YEAR: 1961
EXTT0=
EXTT1=
EXTT2=
EXTT3=
EXTT4=
EXTT5=
EXTT6=
EXTT7=
EXTT8=
EXTT9=
EXTT10=
EXTT11=
EXTT12=
EXTT13=
EXTT14=
EXTT15=
EXTT16=
PLAYORDER=
